<?xml version="1.0" encoding="UTF-8"?>
<svg id="OSS_x5F_Review_x5F_Toolkit" width="175" height="273.8" version="1.1" viewBox="0 0 175 273.8" xml:space="preserve" xmlns="http://www.w3.org/2000/svg" xmlns:cc="http://creativecommons.org/ns#" xmlns:dc="http://purl.org/dc/elements/1.1/" xmlns:rdf="http://www.w3.org/1999/02/22-rdf-syntax-ns#"><metadata id="metadata4359"><rdf:RDF><cc:Work rdf:about=""><dc:format>image/svg+xml</dc:format><dc:type rdf:resource="http://purl.org/dc/dcmitype/StillImage"/><dc:title/></cc:Work></rdf:RDF></metadata>
<style id="style4265" type="text/css">
	.st0{fill:#FFFFFF;stroke:#FFFFFF;stroke-width:0.8;stroke-miterlimit:10;}
	.st1{fill:#FFFFFF;stroke:#FFFFFF;stroke-width:0.4;stroke-miterlimit:10;}
	.st2{fill:#FFFFFF;stroke:#FFFFFF;stroke-width:1.5;stroke-miterlimit:10;}
	.st3{filter:url(#Adobe_OpacityMaskFilter);}
	.st4{fill:url(#SVGID_2_);}
	.st5{mask:url(#SVGID_1_);}
	.st6{fill:#D14E60;}
	.st7{fill:#FFFFFF;}
	.st8{fill:#C41C33;}
	.st9{fill:#D4596A;}
	.st10{fill:#E18D99;}
	.st11{fill:#E3949F;}
	.st12{filter:url(#Adobe_OpacityMaskFilter_1_);}
	.st13{fill:url(#SVGID_4_);stroke:#FFFFFF;stroke-width:0.4;stroke-miterlimit:10;}
	.st14{mask:url(#SVGID_3_);}
	.st15{fill:#B6A0CB;}
	.st16{fill:#997BB7;}
	.st17{fill:#B39CC9;}
	.st18{fill:#9575B3;}
	.st19{fill:#673A93;}
	.st20{fill:#AE97C6;}
	.st21{filter:url(#Adobe_OpacityMaskFilter_2_);}
	.st22{fill:url(#SVGID_6_);stroke:#FFFFFF;stroke-width:0.4;stroke-miterlimit:10;}
	.st23{mask:url(#SVGID_5_);}
	.st24{fill:#66CFCC;}
	.st25{fill:#80D7D4;}
	.st26{fill:#1FB9B4;}
	.st27{fill:#99DFDD;}
	.st28{fill:#00AFAA;}
	.st29{fill:#B2E7E5;}
	.st30{fill:#85D9D6;}
	.st31{filter:url(#Adobe_OpacityMaskFilter_3_);}
	.st32{fill:url(#SVGID_8_);stroke:#FFFFFF;stroke-width:0.4086;stroke-miterlimit:10;}
	.st33{mask:url(#SVGID_7_);}
	.st34{fill:#ECBED6;}
	.st35{fill:#D878AA;}
	.st36{fill:#C53580;}
	.st37{fill:#D56EA4;}
	.st38{fill:#CB498D;}
	.st39{fill:#DF90B9;}
	.st40{fill:#F0CADE;}
	.st41{filter:url(#Adobe_OpacityMaskFilter_4_);}
	.st42{fill:url(#SVGID_10_);stroke:#FFFFFF;stroke-width:0.4;stroke-miterlimit:10;}
	.st43{mask:url(#SVGID_9_);}
	.st44{fill:#F39862;}
	.st45{fill:#F0813E;}
	.st46{fill:#EC610E;}
	.st47{fill:#F7BB97;}
	.st48{fill:#F29056;}
	.st49{fill:#F9CCB2;}
	.st50{filter:url(#Adobe_OpacityMaskFilter_5_);}
	.st51{fill:url(#SVGID_12_);stroke:#FFFFFF;stroke-width:0.4081;stroke-miterlimit:10;}
	.st52{mask:url(#SVGID_11_);}
	.st53{fill:#B1D6EF;}
	.st54{fill:#8FC3E8;}
	.st55{fill:#86BFE6;}
	.st56{fill:#A8D1ED;}
	.st57{fill:#52A3DB;}
	.st58{fill:#7DBAE4;}
	.st59{filter:url(#Adobe_OpacityMaskFilter_6_);}
	.st60{fill:url(#SVGID_14_);stroke:#FFFFFF;stroke-width:0.4133;stroke-miterlimit:10;}
	.st61{mask:url(#SVGID_13_);}
	.st62{fill:#FAB800;}
	.st63{fill:#FCD466;}
	.st64{fill:#FBCA40;}
	.st65{fill:#FBC838;}
	.st66{fill:#FCD873;}
	.st67{filter:url(#Adobe_OpacityMaskFilter_7_);}
	.st68{fill:url(#SVGID_16_);}
	.st69{mask:url(#SVGID_15_);}
	.st70{filter:url(#Adobe_OpacityMaskFilter_8_);}
	.st71{fill:url(#SVGID_18_);stroke:#FFFFFF;stroke-width:0.3102;stroke-miterlimit:10;}
	.st72{mask:url(#SVGID_17_);}
	.st73{filter:url(#Adobe_OpacityMaskFilter_9_);}
	.st74{fill:url(#SVGID_20_);stroke:#FFFFFF;stroke-width:0.3102;stroke-miterlimit:10;}
	.st75{mask:url(#SVGID_19_);}
	.st76{filter:url(#Adobe_OpacityMaskFilter_10_);}
	.st77{fill:url(#SVGID_22_);stroke:#FFFFFF;stroke-width:0.3168;stroke-miterlimit:10;}
	.st78{mask:url(#SVGID_21_);}
	.st79{filter:url(#Adobe_OpacityMaskFilter_11_);}
	.st80{fill:url(#SVGID_24_);stroke:#FFFFFF;stroke-width:0.3102;stroke-miterlimit:10;}
	.st81{mask:url(#SVGID_23_);}
	.st82{filter:url(#Adobe_OpacityMaskFilter_12_);}
	.st83{fill:url(#SVGID_26_);stroke:#FFFFFF;stroke-width:0.3165;stroke-miterlimit:10;}
	.st84{mask:url(#SVGID_25_);}
	.st85{filter:url(#Adobe_OpacityMaskFilter_13_);}
	.st86{fill:url(#SVGID_28_);stroke:#FFFFFF;stroke-width:0.3205;stroke-miterlimit:10;}
	.st87{mask:url(#SVGID_27_);}
	.st88{filter:url(#Adobe_OpacityMaskFilter_14_);}
	.st89{fill:url(#SVGID_30_);}
	.st90{opacity:0.4;fill:url(#SVGID_31_);}
	.st91{opacity:0.9;fill:url(#SVGID_32_);}
	.st92{mask:url(#SVGID_29_);}
	.st93{fill:#59CBC8;}
	.st94{opacity:0.5;}
	.st95{fill:#383C45;}
</style>
<path id="path4267" class="st1" d="m175 105-35 35h-35l-35 35h29v70l-35-35-64 64v-98.9l35-35h-35l69.9-69.9-17.4-17.7-17.5 17.5v-70h70l-17.5 17.5 35 35-35.1 34.9 17.6 17.5h70z" fill="#fff" stroke="#fff" stroke-miterlimit="10" stroke-width=".4"/>
<defs id="defs4272">
	<filter id="Adobe_OpacityMaskFilter" x="2.8" y="1.3" width="174.9" height="273.9" filterUnits="userSpaceOnUse">
		<feColorMatrix id="feColorMatrix4269" values="1 0 0 0 0  0 1 0 0 0  0 0 1 0 0  0 0 0 1 0"/>
	</filter>

	
	
	
	
	
	
	

		
		
	</defs>
<mask id="SVGID_1_" x="2.8" y="1.3" width="174.9" height="273.9" maskUnits="userSpaceOnUse">
	<g id="g4293" class="st3" filter="url(#Adobe_OpacityMaskFilter)">
		<linearGradient id="SVGID_2_" x1="152.73" x2="20.355" y1="30.111" y2="259.38" gradientUnits="userSpaceOnUse">
			<stop id="stop4274" stop-color="#fff" offset="0"/>
			<stop id="stop4276" stop-color="#F9F9F9" offset=".1082"/>
			<stop id="stop4278" stop-color="#E8E8E8" offset=".2516"/>
			<stop id="stop4280" stop-color="#CDCDCD" offset=".4148"/>
			<stop id="stop4282" stop-color="#A6A6A6" offset=".5927"/>
			<stop id="stop4284" stop-color="#757575" offset=".7824"/>
			<stop id="stop4286" stop-color="#3A3A3A" offset=".9792"/>
			<stop id="stop4288" stop-color="#333" offset="1"/>
		</linearGradient>
		
			<rect id="rect4291" x="2.8" y="1.3" width="174.9" height="273.9" fill="url(#SVGID_2_)" stroke="#fff" stroke-miterlimit="10" stroke-width=".3102"/>
	</g>
</mask>
<g id="g4300" transform="translate(-2.8,-1.3)">
		<polygon id="polygon4296" class="st15" points="72.8 71.5 142.5 141.1 3.1 141.1" fill="#b6a0cb"/>
		<path id="path4298" class="st7" d="m72.8 71.6 69.5 69.5h-139l69.5-69.5m0-0.3-70 69.9h139.9z" fill="#fff"/>
	</g><polygon id="polygon4302" class="st16" transform="translate(-2.8,-1.3)" points="2.9 176.3 101.5 176.3 2.9 274.9" fill="#997bb7"/><path id="path4304" class="st7" d="m98.5 175.1-98.3 98.3v-98.3h98.3m0.5-0.2h-99v98.9z" fill="#fff"/><g id="g4312" transform="translate(-2.8,-1.3)">
		<polygon id="polygon4308" class="st17" points="101.7 176.5 101.7 246 66.9 211.2" fill="#b39cc9"/>
		<path id="path4310" class="st7" d="m101.6 176.7v69l-34.5-34.5 34.5-34.5m0.2-0.5-35 35 35 35z" fill="#fff"/>
	</g><g id="g4318" transform="translate(-2.8,-1.3)">
		<polygon id="polygon4314" class="st18" points="55.5 53.8 90.3 18.9 125.1 53.8 90.2 88.6" fill="#9575b3"/>
		<path id="path4316" class="st7" d="m90.3 19.1 34.7 34.7-34.8 34.6-34.6-34.6 34.7-34.7m0-0.3-35 35 34.9 34.9 35.1-34.9z" fill="#fff"/>
	</g><g id="g4324" transform="translate(-2.8,-1.3)">
		<polygon id="polygon4320" class="st19" points="177.5 106.4 142.8 141.1 108 106.4" fill="#673a93"/>
		<path id="path4322" class="st7" d="m177.3 106.5-34.5 34.5-34.5-34.5h69m0.5-0.2h-70l35 35z" fill="#fff"/>
	</g><g id="g4330" transform="translate(-2.8,-1.3)">
		<polygon id="polygon4326" class="st19" points="3.1 176.1 37.9 141.3 107.5 141.3 72.8 176.1" fill="#673a93"/>
		<path id="path4328" class="st7" d="m107.3 141.4-34.6 34.6h-69.4l34.6-34.6h69.4m0.5-0.2h-70l-35 35h70z" fill="#fff"/>
	</g><g id="g4336" transform="translate(-2.8,-1.3)">
		<polygon id="polygon4332" class="st20" points="107.5 1.4 37.9 71 37.9 1.4" fill="#ae97c6"/>
		<path id="path4334" class="st7" d="m107.3 1.5-69.3 69.3v-69.3h69.3m0.5-0.2h-70v70z" fill="#fff"/>
	</g>

</svg>
