<?xml version="1.0" encoding="UTF-8"?>
<svg id="OSS_x5F_Review_x5F_Toolkit" width="183.6" height="154.4" version="1.1" viewBox="0 0 183.6 154.4" xml:space="preserve" xmlns="http://www.w3.org/2000/svg" xmlns:cc="http://creativecommons.org/ns#" xmlns:dc="http://purl.org/dc/elements/1.1/" xmlns:rdf="http://www.w3.org/1999/02/22-rdf-syntax-ns#"><metadata id="metadata5765"><rdf:RDF><cc:Work rdf:about=""><dc:format>image/svg+xml</dc:format><dc:type rdf:resource="http://purl.org/dc/dcmitype/StillImage"/><dc:title/></cc:Work></rdf:RDF></metadata>
<style id="style5667" type="text/css">
	.st0{fill:#FFFFFF;stroke:#FFFFFF;stroke-width:0.8;stroke-miterlimit:10;}
	.st1{fill:#FFFFFF;stroke:#FFFFFF;stroke-width:0.4;stroke-miterlimit:10;}
	.st2{fill:#FFFFFF;stroke:#FFFFFF;stroke-width:1.5;stroke-miterlimit:10;}
	.st3{filter:url(#Adobe_OpacityMaskFilter);}
	.st4{fill:url(#SVGID_2_);}
	.st5{mask:url(#SVGID_1_);}
	.st6{fill:#D14E60;}
	.st7{fill:#FFFFFF;}
	.st8{fill:#C41C33;}
	.st9{fill:#D4596A;}
	.st10{fill:#E18D99;}
	.st11{fill:#E3949F;}
	.st12{filter:url(#Adobe_OpacityMaskFilter_1_);}
	.st13{fill:url(#SVGID_4_);stroke:#FFFFFF;stroke-width:0.4;stroke-miterlimit:10;}
	.st14{mask:url(#SVGID_3_);}
	.st15{fill:#B6A0CB;}
	.st16{fill:#997BB7;}
	.st17{fill:#B39CC9;}
	.st18{fill:#9575B3;}
	.st19{fill:#673A93;}
	.st20{fill:#AE97C6;}
	.st21{filter:url(#Adobe_OpacityMaskFilter_2_);}
	.st22{fill:url(#SVGID_6_);stroke:#FFFFFF;stroke-width:0.4;stroke-miterlimit:10;}
	.st23{mask:url(#SVGID_5_);}
	.st24{fill:#66CFCC;}
	.st25{fill:#80D7D4;}
	.st26{fill:#1FB9B4;}
	.st27{fill:#99DFDD;}
	.st28{fill:#00AFAA;}
	.st29{fill:#B2E7E5;}
	.st30{fill:#85D9D6;}
	.st31{filter:url(#Adobe_OpacityMaskFilter_3_);}
	.st32{fill:url(#SVGID_8_);stroke:#FFFFFF;stroke-width:0.4086;stroke-miterlimit:10;}
	.st33{mask:url(#SVGID_7_);}
	.st34{fill:#ECBED6;}
	.st35{fill:#D878AA;}
	.st36{fill:#C53580;}
	.st37{fill:#D56EA4;}
	.st38{fill:#CB498D;}
	.st39{fill:#DF90B9;}
	.st40{fill:#F0CADE;}
	.st41{filter:url(#Adobe_OpacityMaskFilter_4_);}
	.st42{fill:url(#SVGID_10_);stroke:#FFFFFF;stroke-width:0.4;stroke-miterlimit:10;}
	.st43{mask:url(#SVGID_9_);}
	.st44{fill:#F39862;}
	.st45{fill:#F0813E;}
	.st46{fill:#EC610E;}
	.st47{fill:#F7BB97;}
	.st48{fill:#F29056;}
	.st49{fill:#F9CCB2;}
	.st50{filter:url(#Adobe_OpacityMaskFilter_5_);}
	.st51{fill:url(#SVGID_12_);stroke:#FFFFFF;stroke-width:0.4081;stroke-miterlimit:10;}
	.st52{mask:url(#SVGID_11_);}
	.st53{fill:#B1D6EF;}
	.st54{fill:#8FC3E8;}
	.st55{fill:#86BFE6;}
	.st56{fill:#A8D1ED;}
	.st57{fill:#52A3DB;}
	.st58{fill:#7DBAE4;}
	.st59{filter:url(#Adobe_OpacityMaskFilter_6_);}
	.st60{fill:url(#SVGID_14_);stroke:#FFFFFF;stroke-width:0.4133;stroke-miterlimit:10;}
	.st61{mask:url(#SVGID_13_);}
	.st62{fill:#FAB800;}
	.st63{fill:#FCD466;}
	.st64{fill:#FBCA40;}
	.st65{fill:#FBC838;}
	.st66{fill:#FCD873;}
	.st67{filter:url(#Adobe_OpacityMaskFilter_7_);}
	.st68{fill:url(#SVGID_16_);}
	.st69{mask:url(#SVGID_15_);}
	.st70{filter:url(#Adobe_OpacityMaskFilter_8_);}
	.st71{fill:url(#SVGID_18_);stroke:#FFFFFF;stroke-width:0.3102;stroke-miterlimit:10;}
	.st72{mask:url(#SVGID_17_);}
	.st73{filter:url(#Adobe_OpacityMaskFilter_9_);}
	.st74{fill:url(#SVGID_20_);stroke:#FFFFFF;stroke-width:0.3102;stroke-miterlimit:10;}
	.st75{mask:url(#SVGID_19_);}
	.st76{filter:url(#Adobe_OpacityMaskFilter_10_);}
	.st77{fill:url(#SVGID_22_);stroke:#FFFFFF;stroke-width:0.3168;stroke-miterlimit:10;}
	.st78{mask:url(#SVGID_21_);}
	.st79{filter:url(#Adobe_OpacityMaskFilter_11_);}
	.st80{fill:url(#SVGID_24_);stroke:#FFFFFF;stroke-width:0.3102;stroke-miterlimit:10;}
	.st81{mask:url(#SVGID_23_);}
	.st82{filter:url(#Adobe_OpacityMaskFilter_12_);}
	.st83{fill:url(#SVGID_26_);stroke:#FFFFFF;stroke-width:0.3165;stroke-miterlimit:10;}
	.st84{mask:url(#SVGID_25_);}
	.st85{filter:url(#Adobe_OpacityMaskFilter_13_);}
	.st86{fill:url(#SVGID_28_);stroke:#FFFFFF;stroke-width:0.3205;stroke-miterlimit:10;}
	.st87{mask:url(#SVGID_27_);}
	.st88{filter:url(#Adobe_OpacityMaskFilter_14_);}
	.st89{fill:url(#SVGID_30_);}
	.st90{opacity:0.4;fill:url(#SVGID_31_);}
	.st91{opacity:0.9;fill:url(#SVGID_32_);}
	.st92{mask:url(#SVGID_29_);}
	.st93{fill:#59CBC8;}
	.st94{opacity:0.5;}
	.st95{fill:#383C45;}
</style>
<path id="path5669" class="st1" d="m49.5 104.9 14.5 14.5h70l35 35h-169v-98.9l49.5-49.5 64.1 64v-70l35 35 35-35v70l-35.1 35z" fill="#fff" stroke="#fff" stroke-miterlimit="10" stroke-width=".4"/>
<defs id="defs5674">
	<filter id="Adobe_OpacityMaskFilter" x="2.8" y="3.6" width="183.5" height="154.4" filterUnits="userSpaceOnUse">
		<feColorMatrix id="feColorMatrix5671" values="1 0 0 0 0  0 1 0 0 0  0 0 1 0 0  0 0 0 1 0"/>
	</filter>

	
	
	
	
	
	
	
</defs>
<mask id="SVGID_1_" x="2.8" y="3.6" width="183.5" height="154.4" maskUnits="userSpaceOnUse">
	<g id="g5697" class="st3" filter="url(#Adobe_OpacityMaskFilter)">
		<linearGradient id="SVGID_2_" x1="64.905" x2="123.3" y1="5.1205" y2="165.55" gradientUnits="userSpaceOnUse">
			<stop id="stop5676" stop-color="#fff" offset=".057151"/>
			<stop id="stop5678" stop-color="#FCFCFC" offset=".2199"/>
			<stop id="stop5680" stop-color="#F1F1F1" offset=".3544"/>
			<stop id="stop5682" stop-color="#E0E0E0" offset=".4789"/>
			<stop id="stop5684" stop-color="#C8C8C8" offset=".5973"/>
			<stop id="stop5686" stop-color="#A9A9A9" offset=".7115"/>
			<stop id="stop5688" stop-color="#828282" offset=".8224"/>
			<stop id="stop5690" stop-color="#555" offset=".9288"/>
			<stop id="stop5692" stop-color="#333" offset="1"/>
		</linearGradient>
		
			<rect id="rect5695" x="-1.5" y="3.6" width="187.8" height="154.4" fill="url(#SVGID_2_)" stroke="#fff" stroke-miterlimit="10" stroke-width=".3102"/>
	</g>
</mask>
<g id="g5704" transform="translate(-2.8,-3.6)">
		<polygon id="polygon5700" class="st44" points="52.4 9.8 151 108.4 52.4 108.4" fill="#f39862"/>
		<path id="path5702" class="st7" d="m52.5 10.1 98.3 98.3h-98.3v-98.3m-0.2-0.5v98.9h98.9z" fill="#fff"/>
	</g><g id="g5710" transform="translate(-2.8,-3.6)">
		<polygon id="polygon5706" class="st45" points="2.9 59.3 101.5 157.9 2.9 157.9" fill="#f0813e"/>
		<path id="path5708" class="st7" d="m3 59.5 98.3 98.3h-98.3v-98.3m-0.2-0.4v98.9h98.9z" fill="#fff"/>
	</g><g id="g5716" transform="translate(-2.8,-3.6)">
		<polygon id="polygon5712" class="st46" points="186.3 3.8 186.3 73.3 151.5 38.6" fill="#ec610e"/>
		<path id="path5714" class="st7" d="m186.2 4.1v69l-34.5-34.5 34.5-34.5m0.2-0.5-35 35 35 35z" fill="#fff"/>
	</g><g id="g5722" transform="translate(-2.8,-3.6)">
		<polygon id="polygon5718" class="st47" points="116.5 73.5 151.4 38.7 186.2 73.5 151.3 108.4" fill="#f7bb97"/>
		<path id="path5720" class="st7" d="m151.4 38.8 34.7 34.7-34.8 34.7-34.6-34.7 34.7-34.7m0-0.2-35 35 34.9 35 35.1-35z" fill="#fff"/>
	</g><g id="g5728" transform="translate(-2.8,-3.6)">
		<polygon id="polygon5724" class="st48" points="151.2 38.6 116.5 73.3 116.5 3.8" fill="#f29056"/>
		<path id="path5726" class="st7" d="m116.6 4.1 34.5 34.5-34.5 34.5v-69m-0.2-0.5v70l35-35z" fill="#fff"/>
	</g><g id="g5734" transform="translate(-2.8,-3.6)">
		<polygon id="polygon5730" class="st44" points="101.8 157.9 67 123.1 136.8 123.1 171.5 157.9" fill="#f39862"/>
		<path id="path5732" class="st7" d="m67.3 123.2h69.4l34.6 34.6h-69.4l-34.6-34.6m-0.5-0.2 35 35h70l-35-35z" fill="#fff"/>
	</g><g id="g5740" transform="translate(-2.8,-3.6)">
		<polygon id="polygon5736" class="st49" points="52.2 9.8 52.2 108.3 3 59.1" fill="#f9ccb2"/>
		<path id="path5738" class="st7" d="m52.1 10.1v98l-49-49 49-49m0.2-0.5-49.5 49.5 49.5 49.5z" fill="#fff"/>
	</g>

</svg>
