<?xml version="1.0" encoding="UTF-8"?>
<svg id="OSS_x5F_Review_x5F_Toolkit" width="273.7" height="198.1" version="1.1" viewBox="0 0 273.7 198.1" xml:space="preserve" xmlns="http://www.w3.org/2000/svg" xmlns:cc="http://creativecommons.org/ns#" xmlns:dc="http://purl.org/dc/elements/1.1/" xmlns:rdf="http://www.w3.org/1999/02/22-rdf-syntax-ns#"><metadata id="metadata5861"><rdf:RDF><cc:Work rdf:about=""><dc:format>image/svg+xml</dc:format><dc:type rdf:resource="http://purl.org/dc/dcmitype/StillImage"/><dc:title/></cc:Work></rdf:RDF></metadata>
<style id="style5767" type="text/css">
	.st0{fill:#FFFFFF;stroke:#FFFFFF;stroke-width:0.8;stroke-miterlimit:10;}
	.st1{fill:#FFFFFF;stroke:#FFFFFF;stroke-width:0.4;stroke-miterlimit:10;}
	.st2{fill:#FFFFFF;stroke:#FFFFFF;stroke-width:1.5;stroke-miterlimit:10;}
	.st3{filter:url(#Adobe_OpacityMaskFilter);}
	.st4{fill:url(#SVGID_2_);}
	.st5{mask:url(#SVGID_1_);}
	.st6{fill:#D14E60;}
	.st7{fill:#FFFFFF;}
	.st8{fill:#C41C33;}
	.st9{fill:#D4596A;}
	.st10{fill:#E18D99;}
	.st11{fill:#E3949F;}
	.st12{filter:url(#Adobe_OpacityMaskFilter_1_);}
	.st13{fill:url(#SVGID_4_);stroke:#FFFFFF;stroke-width:0.4;stroke-miterlimit:10;}
	.st14{mask:url(#SVGID_3_);}
	.st15{fill:#B6A0CB;}
	.st16{fill:#997BB7;}
	.st17{fill:#B39CC9;}
	.st18{fill:#9575B3;}
	.st19{fill:#673A93;}
	.st20{fill:#AE97C6;}
	.st21{filter:url(#Adobe_OpacityMaskFilter_2_);}
	.st22{fill:url(#SVGID_6_);stroke:#FFFFFF;stroke-width:0.4;stroke-miterlimit:10;}
	.st23{mask:url(#SVGID_5_);}
	.st24{fill:#66CFCC;}
	.st25{fill:#80D7D4;}
	.st26{fill:#1FB9B4;}
	.st27{fill:#99DFDD;}
	.st28{fill:#00AFAA;}
	.st29{fill:#B2E7E5;}
	.st30{fill:#85D9D6;}
	.st31{filter:url(#Adobe_OpacityMaskFilter_3_);}
	.st32{fill:url(#SVGID_8_);stroke:#FFFFFF;stroke-width:0.4086;stroke-miterlimit:10;}
	.st33{mask:url(#SVGID_7_);}
	.st34{fill:#ECBED6;}
	.st35{fill:#D878AA;}
	.st36{fill:#C53580;}
	.st37{fill:#D56EA4;}
	.st38{fill:#CB498D;}
	.st39{fill:#DF90B9;}
	.st40{fill:#F0CADE;}
	.st41{filter:url(#Adobe_OpacityMaskFilter_4_);}
	.st42{fill:url(#SVGID_10_);stroke:#FFFFFF;stroke-width:0.4;stroke-miterlimit:10;}
	.st43{mask:url(#SVGID_9_);}
	.st44{fill:#F39862;}
	.st45{fill:#F0813E;}
	.st46{fill:#EC610E;}
	.st47{fill:#F7BB97;}
	.st48{fill:#F29056;}
	.st49{fill:#F9CCB2;}
	.st50{filter:url(#Adobe_OpacityMaskFilter_5_);}
	.st51{fill:url(#SVGID_12_);stroke:#FFFFFF;stroke-width:0.4081;stroke-miterlimit:10;}
	.st52{mask:url(#SVGID_11_);}
	.st53{fill:#B1D6EF;}
	.st54{fill:#8FC3E8;}
	.st55{fill:#86BFE6;}
	.st56{fill:#A8D1ED;}
	.st57{fill:#52A3DB;}
	.st58{fill:#7DBAE4;}
	.st59{filter:url(#Adobe_OpacityMaskFilter_6_);}
	.st60{fill:url(#SVGID_14_);stroke:#FFFFFF;stroke-width:0.4133;stroke-miterlimit:10;}
	.st61{mask:url(#SVGID_13_);}
	.st62{fill:#FAB800;}
	.st63{fill:#FCD466;}
	.st64{fill:#FBCA40;}
	.st65{fill:#FBC838;}
	.st66{fill:#FCD873;}
	.st67{filter:url(#Adobe_OpacityMaskFilter_7_);}
	.st68{fill:url(#SVGID_16_);}
	.st69{mask:url(#SVGID_15_);}
	.st70{filter:url(#Adobe_OpacityMaskFilter_8_);}
	.st71{fill:url(#SVGID_18_);stroke:#FFFFFF;stroke-width:0.3102;stroke-miterlimit:10;}
	.st72{mask:url(#SVGID_17_);}
	.st73{filter:url(#Adobe_OpacityMaskFilter_9_);}
	.st74{fill:url(#SVGID_20_);stroke:#FFFFFF;stroke-width:0.3102;stroke-miterlimit:10;}
	.st75{mask:url(#SVGID_19_);}
	.st76{filter:url(#Adobe_OpacityMaskFilter_10_);}
	.st77{fill:url(#SVGID_22_);stroke:#FFFFFF;stroke-width:0.3168;stroke-miterlimit:10;}
	.st78{mask:url(#SVGID_21_);}
	.st79{filter:url(#Adobe_OpacityMaskFilter_11_);}
	.st80{fill:url(#SVGID_24_);stroke:#FFFFFF;stroke-width:0.3102;stroke-miterlimit:10;}
	.st81{mask:url(#SVGID_23_);}
	.st82{filter:url(#Adobe_OpacityMaskFilter_12_);}
	.st83{fill:url(#SVGID_26_);stroke:#FFFFFF;stroke-width:0.3165;stroke-miterlimit:10;}
	.st84{mask:url(#SVGID_25_);}
	.st85{filter:url(#Adobe_OpacityMaskFilter_13_);}
	.st86{fill:url(#SVGID_28_);stroke:#FFFFFF;stroke-width:0.3205;stroke-miterlimit:10;}
	.st87{mask:url(#SVGID_27_);}
	.st88{filter:url(#Adobe_OpacityMaskFilter_14_);}
	.st89{fill:url(#SVGID_30_);}
	.st90{opacity:0.4;fill:url(#SVGID_31_);}
	.st91{opacity:0.9;fill:url(#SVGID_32_);}
	.st92{mask:url(#SVGID_29_);}
	.st93{fill:#59CBC8;}
	.st94{opacity:0.5;}
	.st95{fill:#383C45;}
</style>
<path id="path5769" class="st1" d="m131 68.7 91.3 38.1-38.1 91.3-26.5-64.7-64.7 26.6-15.8 37.9-37.7-91.5zm-57.9 1.1-3.2-69.8-33.3 36.5-36.6-33.4 3.1 69.9 36.4 33.4zm160.4-32.1-11.2 69.1 40.1-29 11.2-69.1z" fill="#fff" stroke="#fff" stroke-miterlimit="10" stroke-width=".4"/>
<defs id="defs5774">
	<filter id="Adobe_OpacityMaskFilter" x="2.8" y="1.6" width="273.6" height="198.2" filterUnits="userSpaceOnUse">
		<feColorMatrix id="feColorMatrix5771" values="1 0 0 0 0  0 1 0 0 0  0 0 1 0 0  0 0 0 1 0"/>
	</filter>

	
	
	
	
	
	
	
</defs>
<mask id="SVGID_1_" x="2.8" y="1.6" width="273.6" height="198.2" maskUnits="userSpaceOnUse">
	<g id="g5795" class="st3" filter="url(#Adobe_OpacityMaskFilter)">
		<linearGradient id="SVGID_2_" x1="232.34" x2="38.128" y1="3.0129" y2="201.63" gradientUnits="userSpaceOnUse">
			<stop id="stop5776" stop-color="#fff" offset="0"/>
			<stop id="stop5778" stop-color="#F9F9F9" offset=".1082"/>
			<stop id="stop5780" stop-color="#E8E8E8" offset=".2516"/>
			<stop id="stop5782" stop-color="#CDCDCD" offset=".4148"/>
			<stop id="stop5784" stop-color="#A6A6A6" offset=".5927"/>
			<stop id="stop5786" stop-color="#757575" offset=".7824"/>
			<stop id="stop5788" stop-color="#3A3A3A" offset=".9792"/>
			<stop id="stop5790" stop-color="#333" offset="1"/>
		</linearGradient>
		<rect id="rect5793" class="st4" x="2.3" y="-6.1" width="277" height="205.6" fill="url(#SVGID_2_)"/>
	</g>
</mask>
<g id="g5802" transform="translate(-2.8,-1.6)">
		<polygon id="polygon5798" class="st6" points="133.6 70.5 80 199.2 42.5 108" fill="#d14e60"/>
		<path id="path5800" class="st7" d="m133.5 70.7-53.5 128.3-37.4-90.9 90.9-37.4m0.3-0.4-91.5 37.7 37.7 91.5z" fill="#fff"/>
	</g><g id="g5808" transform="translate(-2.8,-1.6)">
		<polygon id="polygon5804" class="st8" points="225 108.4 187.1 199.4 134 70.5" fill="#c41c33"/>
		<path id="path5806" class="st7" d="m134.2 70.7 90.7 37.8-37.8 90.7-52.9-128.5m-0.4-0.4 53.3 129.4 38.1-91.3z" fill="#fff"/>
	</g><g id="g5814" transform="translate(-2.8,-1.6)">
		<polygon id="polygon5810" class="st9" points="72.6 1.8 75.8 71.2 39.5 38.1" fill="#d4596a"/>
		<path id="path5812" class="st7" d="m72.5 2 3.2 69-36.1-32.9 32.9-36.1m0.2-0.4-33.4 36.5 36.6 33.3z" fill="#fff"/>
	</g><g id="g5820" transform="translate(-2.8,-1.6)">
		<polygon id="polygon5816" class="st10" points="6.1 74.6 39.3 38.2 75.7 71.5 42.3 107.9" fill="#e18d99"/>
		<path id="path5818" class="st7" d="m39.4 38.4 36.2 33.1-33.2 36.2-36.2-33.1 33.2-36.2m-0.1-0.3-33.4 36.5 36.4 33.4 33.5-36.5z" fill="#fff"/>
	</g><g id="g5826" transform="translate(-2.8,-1.6)">
		<polygon id="polygon5822" class="st8" points="39.2 38.1 6 74.3 2.9 4.9" fill="#c41c33"/>
		<path id="path5824" class="st7" d="m3.1 5.2 36 32.9-32.9 36-3.1-68.9m-0.3-0.5 3.1 69.9 33.4-36.5z" fill="#fff"/>
	</g><g id="g5832" transform="translate(-2.8,-1.6)">
		<polygon id="polygon5828" class="st11" points="236.4 39.3 276.3 10.6 265.2 79.4 225.3 108.1" fill="#e3949f"/>
		<path id="path5830" class="st7" d="m276.2 10.8-11.1 68.5-39.7 28.6 11.1-68.5 39.7-28.6m0.3-0.5-40.1 29-11.2 69.1 40.1-29z" fill="#fff"/>
	</g><g id="g5838" transform="translate(-2.8,-1.6)">
		<polygon id="polygon5834" class="st10" points="160.3 135 96 161.5 133.8 70.6" fill="#e18d99"/>
		<path id="path5836" class="st7" d="m133.8 70.8 26.4 64.1-64.1 26.4 37.7-90.5m0-0.5-38.1 91.3 64.7-26.6z" fill="#fff"/>
	</g>

</svg>
