<?xml version="1.0" encoding="UTF-8"?>
<svg id="OSS_x5F_Review_x5F_Toolkit" width="175" height="244.9" version="1.1" viewBox="0 0 175 244.9" xml:space="preserve" xmlns="http://www.w3.org/2000/svg" xmlns:cc="http://creativecommons.org/ns#" xmlns:dc="http://purl.org/dc/elements/1.1/" xmlns:rdf="http://www.w3.org/1999/02/22-rdf-syntax-ns#"><metadata id="metadata4783"><rdf:RDF><cc:Work rdf:about=""><dc:format>image/svg+xml</dc:format><dc:type rdf:resource="http://purl.org/dc/dcmitype/StillImage"/><dc:title/></cc:Work></rdf:RDF></metadata>
<style id="style4687" type="text/css">
	.st0{fill:#FFFFFF;stroke:#FFFFFF;stroke-width:0.8;stroke-miterlimit:10;}
	.st1{fill:#FFFFFF;stroke:#FFFFFF;stroke-width:0.4;stroke-miterlimit:10;}
	.st2{fill:#FFFFFF;stroke:#FFFFFF;stroke-width:1.5;stroke-miterlimit:10;}
	.st3{filter:url(#Adobe_OpacityMaskFilter);}
	.st4{fill:url(#SVGID_2_);}
	.st5{mask:url(#SVGID_1_);}
	.st6{fill:#D14E60;}
	.st7{fill:#FFFFFF;}
	.st8{fill:#C41C33;}
	.st9{fill:#D4596A;}
	.st10{fill:#E18D99;}
	.st11{fill:#E3949F;}
	.st12{filter:url(#Adobe_OpacityMaskFilter_1_);}
	.st13{fill:url(#SVGID_4_);stroke:#FFFFFF;stroke-width:0.4;stroke-miterlimit:10;}
	.st14{mask:url(#SVGID_3_);}
	.st15{fill:#B6A0CB;}
	.st16{fill:#997BB7;}
	.st17{fill:#B39CC9;}
	.st18{fill:#9575B3;}
	.st19{fill:#673A93;}
	.st20{fill:#AE97C6;}
	.st21{filter:url(#Adobe_OpacityMaskFilter_2_);}
	.st22{fill:url(#SVGID_6_);stroke:#FFFFFF;stroke-width:0.4;stroke-miterlimit:10;}
	.st23{mask:url(#SVGID_5_);}
	.st24{fill:#66CFCC;}
	.st25{fill:#80D7D4;}
	.st26{fill:#1FB9B4;}
	.st27{fill:#99DFDD;}
	.st28{fill:#00AFAA;}
	.st29{fill:#B2E7E5;}
	.st30{fill:#85D9D6;}
	.st31{filter:url(#Adobe_OpacityMaskFilter_3_);}
	.st32{fill:url(#SVGID_8_);stroke:#FFFFFF;stroke-width:0.4086;stroke-miterlimit:10;}
	.st33{mask:url(#SVGID_7_);}
	.st34{fill:#ECBED6;}
	.st35{fill:#D878AA;}
	.st36{fill:#C53580;}
	.st37{fill:#D56EA4;}
	.st38{fill:#CB498D;}
	.st39{fill:#DF90B9;}
	.st40{fill:#F0CADE;}
	.st41{filter:url(#Adobe_OpacityMaskFilter_4_);}
	.st42{fill:url(#SVGID_10_);stroke:#FFFFFF;stroke-width:0.4;stroke-miterlimit:10;}
	.st43{mask:url(#SVGID_9_);}
	.st44{fill:#F39862;}
	.st45{fill:#F0813E;}
	.st46{fill:#EC610E;}
	.st47{fill:#F7BB97;}
	.st48{fill:#F29056;}
	.st49{fill:#F9CCB2;}
	.st50{filter:url(#Adobe_OpacityMaskFilter_5_);}
	.st51{fill:url(#SVGID_12_);stroke:#FFFFFF;stroke-width:0.4081;stroke-miterlimit:10;}
	.st52{mask:url(#SVGID_11_);}
	.st53{fill:#B1D6EF;}
	.st54{fill:#8FC3E8;}
	.st55{fill:#86BFE6;}
	.st56{fill:#A8D1ED;}
	.st57{fill:#52A3DB;}
	.st58{fill:#7DBAE4;}
	.st59{filter:url(#Adobe_OpacityMaskFilter_6_);}
	.st60{fill:url(#SVGID_14_);stroke:#FFFFFF;stroke-width:0.4133;stroke-miterlimit:10;}
	.st61{mask:url(#SVGID_13_);}
	.st62{fill:#FAB800;}
	.st63{fill:#FCD466;}
	.st64{fill:#FBCA40;}
	.st65{fill:#FBC838;}
	.st66{fill:#FCD873;}
	.st67{filter:url(#Adobe_OpacityMaskFilter_7_);}
	.st68{fill:url(#SVGID_16_);}
	.st69{mask:url(#SVGID_15_);}
	.st70{filter:url(#Adobe_OpacityMaskFilter_8_);}
	.st71{fill:url(#SVGID_18_);stroke:#FFFFFF;stroke-width:0.3102;stroke-miterlimit:10;}
	.st72{mask:url(#SVGID_17_);}
	.st73{filter:url(#Adobe_OpacityMaskFilter_9_);}
	.st74{fill:url(#SVGID_20_);stroke:#FFFFFF;stroke-width:0.3102;stroke-miterlimit:10;}
	.st75{mask:url(#SVGID_19_);}
	.st76{filter:url(#Adobe_OpacityMaskFilter_10_);}
	.st77{fill:url(#SVGID_22_);stroke:#FFFFFF;stroke-width:0.3168;stroke-miterlimit:10;}
	.st78{mask:url(#SVGID_21_);}
	.st79{filter:url(#Adobe_OpacityMaskFilter_11_);}
	.st80{fill:url(#SVGID_24_);stroke:#FFFFFF;stroke-width:0.3102;stroke-miterlimit:10;}
	.st81{mask:url(#SVGID_23_);}
	.st82{filter:url(#Adobe_OpacityMaskFilter_12_);}
	.st83{fill:url(#SVGID_26_);stroke:#FFFFFF;stroke-width:0.3165;stroke-miterlimit:10;}
	.st84{mask:url(#SVGID_25_);}
	.st85{filter:url(#Adobe_OpacityMaskFilter_13_);}
	.st86{fill:url(#SVGID_28_);stroke:#FFFFFF;stroke-width:0.3205;stroke-miterlimit:10;}
	.st87{mask:url(#SVGID_27_);}
	.st88{filter:url(#Adobe_OpacityMaskFilter_14_);}
	.st89{fill:url(#SVGID_30_);}
	.st90{opacity:0.4;fill:url(#SVGID_31_);}
	.st91{opacity:0.9;fill:url(#SVGID_32_);}
	.st92{mask:url(#SVGID_29_);}
	.st93{fill:#59CBC8;}
	.st94{opacity:0.5;}
	.st95{fill:#383C45;}
</style>
<path id="path4689" class="st1" d="m134 203.9 41 41h-140l-35-35h70l35-35-41-41v49.5l-49.5-49.5v-49.5l20.5 20.5 70-70.1 35-34.9 35 35-69.9 69.9h29v99.1z" fill="#fff" stroke="#fff" stroke-miterlimit="10" stroke-width=".4"/>
<defs id="defs4694">
	<filter id="Adobe_OpacityMaskFilter" x="2.8" y="2.3" width="174.9" height="244.9" filterUnits="userSpaceOnUse">
		<feColorMatrix id="feColorMatrix4691" values="1 0 0 0 0  0 1 0 0 0  0 0 1 0 0  0 0 0 1 0"/>
	</filter>

	
	
	
	
	
	
	
</defs>
<mask id="SVGID_1_" x="2.8" y="2.3" width="174.9" height="244.9" maskUnits="userSpaceOnUse">
	<g id="g4715" class="st3" filter="url(#Adobe_OpacityMaskFilter)">
		<linearGradient id="SVGID_2_" x1="131.01" x2="49.293" y1="230.62" y2="6.1015" gradientUnits="userSpaceOnUse">
			<stop id="stop4696" stop-color="#fff" offset="0"/>
			<stop id="stop4698" stop-color="#F9F9F9" offset=".1082"/>
			<stop id="stop4700" stop-color="#E8E8E8" offset=".2516"/>
			<stop id="stop4702" stop-color="#CDCDCD" offset=".4148"/>
			<stop id="stop4704" stop-color="#A6A6A6" offset=".5927"/>
			<stop id="stop4706" stop-color="#757575" offset=".7824"/>
			<stop id="stop4708" stop-color="#3A3A3A" offset=".9792"/>
			<stop id="stop4710" stop-color="#333" offset="1"/>
		</linearGradient>
		
			<rect id="rect4713" x=".6" y="2.3" width="183.8" height="244.9" fill="url(#SVGID_2_)" stroke="#fff" stroke-miterlimit="10" stroke-width=".3102"/>
	</g>
</mask>
<g id="g4722" transform="translate(-2.8,-2.3)">
		<polygon id="polygon4718" class="st24" points="107.8 177.3 177.5 247.1 38.1 247.1" fill="#66cfcc"/>
		<path id="path4720" class="st7" d="m107.8 177.5 69.5 69.5h-139l69.5-69.5m0-0.3-70 70h139.9z" fill="#fff"/>
	</g><g id="g4728" transform="translate(-2.8,-2.3)">
		<polygon id="polygon4724" class="st25" points="136.7 107.3 136.7 205.9 38.1 107.3" fill="#80d7d4"/>
		<path id="path4726" class="st7" d="m136.6 107.4v98.3l-98.3-98.3h98.3m0.2-0.2h-99l98.9 98.9v-98.9z" fill="#fff"/>
	</g><g id="g4734" transform="translate(-2.8,-2.3)">
		<polygon id="polygon4730" class="st26" points="142.6 72.2 107.9 107 107.9 37.4" fill="#1fb9b4"/>
		<path id="path4732" class="st7" d="m108 37.6 34.5 34.6-34.5 34.5v-69.1m-0.2-0.5v70.1l35-35z" fill="#fff"/>
	</g><g id="g4740" transform="translate(-2.8,-2.3)">
		<polygon id="polygon4736" class="st27" points="107.9 37.1 142.8 2.4 177.6 37.3 142.8 72.1" fill="#99dfdd"/>
		<path id="path4738" class="st7" d="m142.8 2.6 34.7 34.7-34.7 34.7-34.7-34.8 34.7-34.6m0-0.3-35 34.9 35 35.1 35-35z" fill="#fff"/>
	</g><g id="g4746" transform="translate(-2.8,-2.3)">
		<polygon id="polygon4742" class="st28" points="72.6 212.3 37.8 247 3.1 212.3" fill="#00afaa"/>
		<path id="path4744" class="st7" d="m3.3 212.4h69l-34.5 34.5-34.5-34.5m-0.5-0.2 35 35 35-35z" fill="#fff"/>
	</g><g id="g4752" transform="translate(-2.8,-2.3)">
		<polygon id="polygon4748" class="st29" points="17.4 136.1 17.4 86.9 66.7 136.2 66.7 185.4" fill="#b2e7e5"/>
		<path id="path4750" class="st7" d="m17.5 87.2 49.1 49.1v48.9l-49.1-49.1v-48.9m-0.2-0.5v49.5l49.5 49.5v-49.5z" fill="#fff"/>
	</g><g id="g4758" transform="translate(-2.8,-2.3)">
		<polygon id="polygon4754" class="st30" points="107.7 107.1 38.1 107.1 107.7 37.4" fill="#85d9d6"/>
		<path id="path4756" class="st7" d="m107.6 37.6v69.4h-69.3l69.3-69.4m0.2-0.5-70 70.1h70z" fill="#fff"/>
	</g>

</svg>
